<svg width="1200" height="1200" xmlns="http://www.w3.org/2000/svg" xmlns:xlink="http://www.w3.org/1999/xlink" version="1.1"><g transform="scale(14.611245035881) translate(-8.886119842529297, -8.785737991333002)">            <linearGradient id="SvgjsLinearGradient1840"><stop id="SvgjsStop1841" stop-color="#2d388a" offset="0"/><stop id="SvgjsStop1842" stop-color="#00aeef" offset="1"/></linearGradient><linearGradient id="SvgjsLinearGradient1843"><stop id="SvgjsStop1844" stop-color="#2d388a" offset="0"/><stop id="SvgjsStop1845" stop-color="#00aeef" offset="1"/></linearGradient><linearGradient id="SvgjsLinearGradient1846"><stop id="SvgjsStop1847" stop-color="#2d388a" offset="0"/><stop id="SvgjsStop1848" stop-color="#00aeef" offset="1"/></linearGradient>            <g fill="url(#SvgjsLinearGradient1840)"><linearGradient id="SvgjsLinearGradient1840"><stop id="SvgjsStop1841" stop-color="#2d388a" offset="0"/><stop id="SvgjsStop1842" stop-color="#00aeef" offset="1"/></linearGradient><linearGradient id="SvgjsLinearGradient1843"><stop id="SvgjsStop1844" stop-color="#2d388a" offset="0"/><stop id="SvgjsStop1845" stop-color="#00aeef" offset="1"/></linearGradient><linearGradient id="SvgjsLinearGradient1846"><stop id="SvgjsStop1847" stop-color="#2d388a" offset="0"/><stop id="SvgjsStop1848" stop-color="#00aeef" offset="1"/></linearGradient><g xmlns="http://www.w3.org/2000/svg"><path d="M32.7,31.3c-0.4,0.4-0.5,1-0.1,1.4c1.2,1.3,2.9,2.3,5,2.8c-0.7,1.2-1.7,3.4-1.4,6c0.3,2.4,1.7,4.6,4.1,6.4   c0.2,0.1,0.4,0.2,0.6,0.2c0.3,0,0.6-0.1,0.8-0.4c0.3-0.4,0.3-1.1-0.2-1.4c-2-1.5-3.1-3.2-3.3-5c-0.4-2.9,1.5-5.4,1.5-5.4   c0,0,0,0,0,0c0.4,0,0.8,0,1.2,0c3.3,0,6.2-2.1,8-4.6v25.3c-3.4,0.2-12.5,0-14.6-6.3c-0.2-0.5-0.8-0.8-1.3-0.6   c-0.5,0.2-0.8,0.8-0.6,1.3c0.5,1.4,1.3,2.6,2.2,3.6c-1.9,0.8-6.7,3.4-9,10.8c-0.2,0.5,0.1,1.1,0.6,1.3c0.1,0,0.2,0,0.3,0   c0.4,0,0.8-0.3,0.9-0.7c2.5-8,8.2-9.7,8.5-9.7c0.1,0,0.3-0.1,0.4-0.2c3.3,2.2,7.8,2.7,10.9,2.7c0.6,0,1.2,0,1.7,0v20   c0,0.4,0,0.8-0.1,1.1c0,0,0,0,0,0l0,0c-0.5,3.3-3.5,5.8-6.9,5.8c-1.9,0-3.6-0.7-4.9-2.1c0.1-1.8,1-8.8,8.1-9.5   c0.5-0.1,1-0.5,0.9-1.1c-0.1-0.6-0.6-1-1.1-0.9c-6.7,0.7-8.9,6-9.6,9.3c-1.2-1.9-2.5-4.2-3.1-5.6c1.1-1,3.2-3.7,4.5-8.8   c0.1-0.5-0.2-1.1-0.7-1.2c-0.5-0.1-1.1,0.2-1.2,0.7c-1.5,6.1-4.3,8.2-4.3,8.2l0,0c0,0,0,0,0,0c-0.3,0.3-0.6,0.5-0.9,0.7   c-1.8,1.2-3.8,1.5-5.7,1c-1.8-0.5-3.3-1.7-4.2-3.4c-1.4-2.7-1-6.3,0.9-8.9c0.3-0.4,0.2-1.1-0.2-1.4c-0.1-0.1-0.2-0.1-0.3-0.2   c-4.3-2.6-8.9-7.1-6.4-14.3c1.1-3.1,3.3-5.3,6.1-6.1c0.6,0.9,1.9,2.5,3.9,3.3c0.1,0.1,0.3,0.1,0.4,0.1c0.4,0,0.8-0.2,0.9-0.6   c0.2-0.5,0-1.1-0.5-1.3c-2.2-0.9-3.3-3-3.3-3.1c0,0,0,0,0-0.1c0,0,0,0,0-0.1c-1.6-2.2-1.9-5.4-1-8.2c0.7-2.2,2.3-3.9,4-4.2   c1.1-0.2,2.2,0,3.1,0.6c0,0,0,0,0.1,0c0.1,0,0.1,0.1,0.2,0.1c0,0,0.1,0,0.1,0c0,0,0.1,0,0.1,0c0,0,0.1,0,0.1,0c0,0,0.1,0,0.1,0   c0,0,0,0,0,0c0,0,0.1,0,0.1-0.1c0.1,0,0.1-0.1,0.2-0.1c0.1,0,0.1-0.1,0.2-0.2c0,0,0.1-0.1,0.1-0.1c0,0,0,0,0,0c0-0.1,0-0.1,0.1-0.2   c0-0.1,0-0.1,0.1-0.2c0,0,0-0.1,0-0.2c0-0.1,0-0.1,0-0.2v0c-0.3-0.9-0.4-1.9-0.4-2.9c0-5.7,4.7-10.4,10.4-10.4   c5.5,0,10.2,5,10.2,10.9v1.5c-0.5,2.9-4.1,7.2-8,7.2c-2.8,0-5.4-1-6.8-2.6C33.8,31,33.1,30.9,32.7,31.3z"/><g><path d="M79.9,62.6c4.2-2.5,8.8-7.1,6.3-14.3c-1.2-3.4-3.6-5.7-6.7-6.3c-0.3-0.1-0.6-0.3-0.7-0.6c-0.1-0.3-0.1-0.7,0.1-0.9    c1.6-2.3,1.9-5.4,1-8.2c-0.7-2.2-2.3-3.9-4-4.2c-1.1-0.2-2.2,0-3.1,0.6c0,0,0,0-0.1,0c-0.1,0-0.2,0.1-0.3,0.1c0,0-0.1,0-0.1,0    s-0.1,0-0.1,0c-0.1,0-0.1,0-0.2,0c0,0,0,0-0.1,0h0c0,0-0.1,0-0.1-0.1c-0.1,0-0.1-0.1-0.2-0.1c-0.1,0-0.1-0.1-0.1-0.2    c0,0-0.1-0.1-0.1-0.1c0,0,0,0,0,0c0-0.1,0-0.1-0.1-0.2c0-0.1,0-0.1-0.1-0.2c0-0.1,0-0.1,0-0.2c0-0.1,0-0.2,0-0.2c0,0,0,0,0,0    c0.3-0.9,0.4-1.9,0.4-2.9c0-5.7-4.7-10.4-10.4-10.4c-5.5,0-10.2,5-10.2,10.9v53.4c0,0.4,0,0.8,0.1,1.1v0c0,0,0,0,0,0    c0.5,3.3,3.5,5.8,6.9,5.8c2.2,0,4.1-1,5.5-2.7h0c0,0,0,0,0,0c1.8-2.1,3.9-6.2,4.5-7.8c0.1-0.3,0.4-0.5,0.7-0.6    c0.3-0.1,0.6,0,0.9,0.2c0.3,0.3,0.6,0.5,0.9,0.7c1.8,1.1,3.8,1.5,5.6,1c1.8-0.5,3.3-1.7,4.2-3.4c1.4-2.7,1-6.3-0.9-8.9    c-0.3-0.4-0.2-1.1,0.2-1.4C79.7,62.7,79.9,62.7,79.9,62.6z M70.3,43.3v-2.7c0-0.3,0.2-0.5,0.5-0.5c0.3,0,0.5,0.2,0.5,0.5v2.7h1.5    c0.3,0,0.5,0.2,0.5,0.5v1.5H76c0.3,0,0.5,0.2,0.5,0.5c0,0.3-0.2,0.5-0.5,0.5h-2.7v1H76c0.3,0,0.5,0.2,0.5,0.5    c0,0.3-0.2,0.5-0.5,0.5h-2.7v1H76c0.3,0,0.5,0.2,0.5,0.5c0,0.3-0.2,0.5-0.5,0.5h-2.7v1H76c0.3,0,0.5,0.2,0.5,0.5    c0,0.3-0.2,0.5-0.5,0.5h-2.7v1H76c0.3,0,0.5,0.2,0.5,0.5c0,0.3-0.2,0.5-0.5,0.5h-2.7v1.9c0,0.3-0.2,0.5-0.5,0.5h-1.5v2.7    c0,0.3-0.2,0.5-0.5,0.5c-0.3,0-0.5-0.2-0.5-0.5v-2.7h-1v8h4.3c0.1-1.3,1.2-2.4,2.5-2.4c1.4,0,2.5,1.1,2.5,2.5    c0,1.4-1.1,2.5-2.5,2.5c-1.1,0-2-0.7-2.3-1.6c0,0,0,0,0,0h-4.9c-0.3,0-0.5-0.2-0.5-0.5v-8.5h-1.4v12.9c0,0.3-0.2,0.5-0.5,0.5h-7.6    c-0.4,1-1.3,1.6-2.3,1.6c-1.4,0-2.5-1.1-2.5-2.5c0-1.4,1.1-2.5,2.5-2.5c1.3,0,2.4,1.1,2.5,2.4h6.9V56.7h-1.2v6    c0,0.3-0.2,0.5-0.5,0.5h-1.6c-0.2,1.2-1.2,2.1-2.5,2.1c-1.4,0-2.5-1.1-2.5-2.5c0-1.4,1.1-2.5,2.5-2.5c1.2,0,2.2,0.8,2.4,2h1.2    v-5.5h-4.1c-0.3,0-0.5-0.2-0.5-0.5v-1.9h-3.1c-0.3,0-0.5-0.2-0.5-0.5c0-0.3,0.2-0.5,0.5-0.5h3.1v-1h-3.1c-0.3,0-0.5-0.2-0.5-0.5    c0-0.3,0.2-0.5,0.5-0.5h3.1v-1h-3.1c-0.3,0-0.5-0.2-0.5-0.5c0-0.3,0.2-0.5,0.5-0.5h3.1v-1h-3.1c-0.3,0-0.5-0.2-0.5-0.5    c0-0.3,0.2-0.5,0.5-0.5h3.1v-1h-3.1c-0.3,0-0.5-0.2-0.5-0.5c0-0.3,0.2-0.5,0.5-0.5h3.1v-1.5c0-0.3,0.2-0.5,0.5-0.5h4.1v-5.5h-1.2    c-0.3,1.1-1.3,2-2.4,2c-1.4,0-2.5-1.1-2.5-2.5c0-1.4,1.1-2.5,2.5-2.5c1.2,0,2.2,0.9,2.5,2h1.6c0.3,0,0.5,0.2,0.5,0.5v6h1.2V30.8    H59c-0.1,1.3-1.2,2.4-2.5,2.4c-1.4,0-2.5-1.1-2.5-2.5c0-1.4,1.1-2.5,2.5-2.5c1.1,0,2,0.7,2.4,1.6h7.6c0.3,0,0.5,0.2,0.5,0.5v12.9    h1.4v-7.8c0-0.3,0.2-0.5,0.5-0.5h4.8c0.1-1.3,1.2-2.4,2.5-2.4c1.4,0,2.5,1.1,2.5,2.5c0,1.4-1.1,2.5-2.5,2.5c-1.1,0-2-0.7-2.4-1.7    h-4.5v7.3H70.3z"/><path d="M58,69.3c0,0.1,0,0.2,0,0.2c0,0,0,0.1,0,0.1c-0.2,0.7-0.8,1.1-1.5,1.1c-0.8,0-1.5-0.7-1.5-1.5c0-0.8,0.7-1.5,1.5-1.5    C57.3,67.8,58,68.4,58,69.3z"/><path d="M61.6,62.7c0,0.8-0.7,1.5-1.5,1.5c-0.8,0-1.5-0.7-1.5-1.5c0-0.8,0.7-1.5,1.5-1.5C60.9,61.2,61.6,61.9,61.6,62.7z"/><path d="M77.6,64.9c0,0.8-0.7,1.5-1.5,1.5c-0.8,0-1.5-0.7-1.5-1.5c0-0.8,0.7-1.5,1.5-1.5C76.9,63.4,77.6,64.1,77.6,64.9z"/><path d="M77.6,35.1c0,0.8-0.7,1.5-1.5,1.5c-0.8,0-1.5-0.7-1.5-1.5c0-0.8,0.7-1.5,1.5-1.5C76.9,33.6,77.6,34.3,77.6,35.1z"/><path d="M58,30.7c0,0.8-0.7,1.5-1.5,1.5c-0.8,0-1.5-0.7-1.5-1.5c0-0.8,0.7-1.5,1.5-1.5c0.7,0,1.3,0.5,1.5,1.1c0,0.1,0,0.1,0,0.2    C58,30.6,58,30.6,58,30.7z"/><path d="M61.6,37.3c0,0.8-0.7,1.5-1.5,1.5c-0.8,0-1.5-0.7-1.5-1.5c0-0.8,0.7-1.5,1.5-1.5C60.9,35.8,61.6,36.4,61.6,37.3z"/><path d="M60.1,44.3v11.5h12.2V44.3H60.1z M70.6,53.7c0,0.3-0.2,0.5-0.5,0.5h-7.7c-0.3,0-0.5-0.2-0.5-0.5v-7.3    c0-0.3,0.2-0.5,0.5-0.5h7.7c0.3,0,0.5,0.2,0.5,0.5V53.7z"/><rect x="62.8" y="46.8" width="6.7" height="6.3"/></g></g></g>        </g></svg>