<svg width="1024" height="512" viewBox="0 0 1024 512" fill="none" xmlns="http://www.w3.org/2000/svg">
  <defs>
    <linearGradient id="brand" x1="116" y1="256" x2="908" y2="256" gradientUnits="userSpaceOnUse">
      <stop offset="0" stop-color="#2f4598"/>
      <stop offset="0.52" stop-color="#137dc5"/>
      <stop offset="1" stop-color="#0baee8"/>
    </linearGradient>
  </defs>
  <g transform="translate(380 28) scale(.52)">
    <path fill="url(#brand)" d="M243 33c-35 0-64 28-64 64 0 6 1 11 2 16-4 2-9 2-14 0-30-12-64 10-64 43 0 3 0 7 1 10-29 10-50 37-50 69 0 21 9 40 23 53-20 16-32 40-32 66 0 47 38 85 85 85 8 0 15-1 22-3 9 26 34 45 63 45 37 0 67-30 67-67V74c0-23-18-41-39-41Z"/>
    <path fill="url(#brand)" d="M269 74c0-23 18-41 41-41 35 0 64 28 64 64 0 5-1 11-2 16 5 2 10 2 15 0 30-12 64 10 64 43 0 4-1 8-2 12 28 10 48 37 48 69 0 21-8 40-22 53 20 16 32 40 32 66 0 47-38 85-85 85-8 0-15-1-22-3-9 26-34 45-63 45-37 0-68-30-68-67V74Z"/>
    <path d="M206 116c14 13 42 20 70-5M206 191c15 44 51 64 77 64M177 265c20-45 52-68 86-76M180 343c22-37 51-56 84-62M217 407c7-39 29-66 65-78" stroke="white" stroke-width="16" stroke-linecap="round"/>
    <path d="M320 144h58v70M320 214h104M320 302h58v66H319" stroke="white" stroke-width="12" stroke-linecap="round" stroke-linejoin="round"/>
    <rect x="352" y="218" width="70" height="70" rx="4" stroke="white" stroke-width="12"/>
    <rect x="371" y="237" width="32" height="32" rx="2" stroke="white" stroke-width="10"/>
    <path d="M344 230h-22M344 250h-22M344 270h-22M430 230h22M430 250h22M430 270h22M369 210v-22M389 210v-22M409 210v-22M369 318v-22M389 318v-22M409 318v-22" stroke="white" stroke-width="8" stroke-linecap="round"/>
    <circle cx="320" cy="144" r="14" stroke="white" stroke-width="10"/>
    <circle cx="424" cy="214" r="14" stroke="white" stroke-width="10"/>
    <circle cx="320" cy="302" r="14" stroke="white" stroke-width="10"/>
    <circle cx="378" cy="368" r="14" stroke="white" stroke-width="10"/>
  </g>
  <text x="512" y="353" text-anchor="middle" font-family="Arial Black, Arial, sans-serif" font-size="132" font-weight="900" letter-spacing="12" fill="url(#brand)">AQLIYA</text>
  <text x="512" y="430" text-anchor="middle" font-family="Arial, Helvetica, sans-serif" font-size="33" font-weight="400" letter-spacing="32" fill="url(#brand)">MIND THE FUTURE</text>
</svg>
